# xmcd
#
# Track frame offsets:
#	150
#	10789
#	22012
#	35054
#	48248
#	69765
#	92119
#	112024
#	138698
#	152066
#	165956
#	180682
#	198323
#
# Disc length: 2860 seconds
#
# Revision: 0
# Processed by: cddbd v1.5.2PL0 Copyright (c) Steve Scherf et al.
# Submitted via: EasyCDDAExtractor 16.0.1.1
#
DISCID=a70b2a0d
DTITLE=Various Artist - 40 R&B #1 Hits
DYEAR=2006
DGENRE=R&B
TTITLE0=Stagger Lee
TTITLE1=So Many Ways
TTITLE2=Two Lovers
TTITLE3=Soul Man
TTITLE4=Have You Seen Her
TTITLE5=Mr and Mrs Jones
TTITLE6=Supernatural Thing, Pt 1
TTITLE7=Le Freak
TTITLE8=Games People Play
TTITLE9=The Tears of A Clown
TTITLE10=Rock Your Baby 
TTITLE11=I'll Be Good To You
TTITLE12=Young Hearts Run Free
EXTD=
EXTT0=
EXTT1=
EXTT2=
EXTT3=
EXTT4=
EXTT5=
EXTT6=
EXTT7=
EXTT8=
EXTT9=
EXTT10=
EXTT11=
EXTT12=
PLAYORDER=
